<svg xmlns="http://www.w3.org/2000/svg" xmlns:xlink="http://www.w3.org/1999/xlink" viewBox="0 0 480 200"><defs><style>.cls-1{isolation:isolate;}.cls-2{fill:#fff;}.cls-3{fill:#f7a71b;}.cls-4{fill:url(#New_Gradient_Swatch);}.cls-5{opacity:0.48;fill:url(#linear-gradient);}.cls-5,.cls-6{mix-blend-mode:multiply;}.cls-6{fill:url(#linear-gradient-2);}</style><linearGradient id="New_Gradient_Swatch" x1="-1175.4" y1="2066.96" x2="-1190.36" y2="1972.61" gradientTransform="translate(-1643.55 -1097.88) rotate(-90)" gradientUnits="userSpaceOnUse"><stop offset="0" stop-color="#f8bb15"/><stop offset="0.82" stop-color="#f7a41b"/><stop offset="1" stop-color="#f79e1d"/></linearGradient><linearGradient id="linear-gradient" x1="4470.07" y1="2662.65" x2="4441.33" y2="2727.64" gradientTransform="translate(-4111.03 -2589.44)" gradientUnits="userSpaceOnUse"><stop offset="0" stop-color="#f69220"/><stop offset="1" stop-color="#fff"/></linearGradient><linearGradient id="linear-gradient-2" x1="4487.93" y1="2796.95" x2="4469.93" y2="2655.42" gradientTransform="translate(-4111.03 -2589.44)" gradientUnits="userSpaceOnUse"><stop offset="0" stop-color="#f05a26"/><stop offset="1" stop-color="#fff"/></linearGradient></defs><g class="cls-1"><g id="Layer_6" data-name="Layer 6"><path class="cls-2" d="M87,4.87a81.4,81.4,0,1,0,81.4,81.4A81.4,81.4,0,0,0,87,4.87m79.07,81.4a78.73,78.73,0,0,1-18.48,50.78,87.1,87.1,0,0,0,8-11.68c7.63-13.3,8.55-28.1,3.94-38.79a62.1,62.1,0,0,0,.89-12.41c-.62-20.57-13.19-41.07-29.78-53.85a79,79,0,0,1,35.46,65.95M89.7,9.59c26.58-.37,49.83,15.77,60.46,38.2a66.52,66.52,0,0,1,6.38,28c0,1.75-.08,3.47-.21,5.18a22.55,22.55,0,0,0-12.4-8.45A26,26,0,0,0,133,72.12C120.07,56.07,98.85,45.56,76.54,45.56,53,45.56,32.93,56.58,22.19,74,22.71,39.28,50.25,10.13,89.7,9.59m3,130.79c-1.05.05-2.11.08-3.17.08-34.12,0-62.92-26.11-66.84-58,9-16.88,28.36-26.73,50.88-26.73,16.12,0,34.42,8.18,47.51,20.68-11.61,6.29-22.08,18.2-27.2,31.08-4.94,12.42-5.32,24.21-1.18,32.91m6.47-27.23C104.21,100.51,116,89,128.28,84.51c6.37,8.42,10.36,18.11,10.36,28.25a56.58,56.58,0,0,1-.56,7.92A68,68,0,0,1,96.9,140.07c-2.78-7.24-1.89-16.71,2.22-26.92m38.14,12a48.14,48.14,0,0,1-18.57,28.28,24.34,24.34,0,0,1-7.18-.84c-6.54-1.81-11-5.39-13.57-10.2a74.27,74.27,0,0,0,39.32-17.24m7.64-7.68a65,65,0,0,0,12.93-23.55c4.39,8.92,3.29,21.74-3.73,33.72-7.17,12.23-18,21.91-29.2,24.86a57.86,57.86,0,0,0,20-35m-5.11-34.92a22.78,22.78,0,0,1,5,.73,19.85,19.85,0,0,1,10.28,6.4,62.39,62.39,0,0,1-9.47,22c.11-1.57.19-3.15.19-4.76a53.08,53.08,0,0,0-6-24.34M88.61,143c1.79,0,3.55-.08,5.31-.21A24.43,24.43,0,0,0,109,153.58a29.74,29.74,0,0,0,7.94,1,59.92,59.92,0,0,1-33.66,9.84c-36.24,0-65.73-30.28-66-59.06a49.31,49.31,0,0,1,2-14.64c8,29.77,36,52.21,69.35,52.21m34.43,11c6.14-1.32,11.91-4.56,17.18-9.16a78.73,78.73,0,0,1-35.63,18.57A57.73,57.73,0,0,0,123,153.94M55.66,13.69C32.83,25,17,52,17,73.31a67.18,67.18,0,0,0,.73,9.77,57.81,57.81,0,0,0-3.84,21c0,11,4,21.41,10.56,30.43A79,79,0,0,1,55.66,13.69"/><path class="cls-2" d="M87,4.87a81.4,81.4,0,1,0,81.4,81.4A81.4,81.4,0,0,0,87,4.87Zm79.07,81.4a78.73,78.73,0,0,1-18.48,50.78,87.1,87.1,0,0,0,8-11.68c7.63-13.3,8.55-28.1,3.94-38.79a62.1,62.1,0,0,0,.89-12.41c-.62-20.57-13.19-41.07-29.78-53.85A79,79,0,0,1,166.11,86.27ZM89.7,9.59c26.58-.37,49.83,15.77,60.46,38.2a66.52,66.52,0,0,1,6.38,28c0,1.75-.08,3.47-.21,5.18a22.55,22.55,0,0,0-12.4-8.45A26,26,0,0,0,133,72.12C120.07,56.07,98.85,45.56,76.54,45.56,53,45.56,32.93,56.58,22.19,74,22.71,39.28,50.25,10.13,89.7,9.59Zm3,130.79c-1.05.05-2.11.08-3.17.08-34.12,0-62.92-26.11-66.84-58,9-16.88,28.36-26.73,50.88-26.73,16.12,0,34.42,8.18,47.51,20.68-11.61,6.29-22.08,18.2-27.2,31.08C88.89,119.89,88.51,131.68,92.65,140.38Zm6.47-27.23C104.21,100.51,116,89,128.28,84.51c6.37,8.42,10.36,18.11,10.36,28.25a56.58,56.58,0,0,1-.56,7.92A68,68,0,0,1,96.9,140.07C94.12,132.83,95,123.36,99.12,113.15Zm38.14,12a48.14,48.14,0,0,1-18.57,28.28,24.34,24.34,0,0,1-7.18-.84c-6.54-1.81-11-5.39-13.57-10.2A74.27,74.27,0,0,0,137.26,125.11Zm7.64-7.68a65,65,0,0,0,12.93-23.55c4.39,8.92,3.29,21.74-3.73,33.72-7.17,12.23-18,21.91-29.2,24.86A57.86,57.86,0,0,0,144.9,117.43Zm-5.11-34.92a22.78,22.78,0,0,1,5,.73,19.85,19.85,0,0,1,10.28,6.4,62.39,62.39,0,0,1-9.47,22c.11-1.57.19-3.15.19-4.76A53.08,53.08,0,0,0,139.79,82.51ZM88.61,143c1.79,0,3.55-.08,5.31-.21A24.43,24.43,0,0,0,109,153.58a29.74,29.74,0,0,0,7.94,1,59.92,59.92,0,0,1-33.66,9.84c-36.24,0-65.73-30.28-66-59.06a49.31,49.31,0,0,1,2-14.64C27.26,120.51,55.22,143,88.61,143Zm34.43,11c6.14-1.32,11.91-4.56,17.18-9.16a78.73,78.73,0,0,1-35.63,18.57A57.73,57.73,0,0,0,123,153.94ZM55.66,13.69C32.83,25,17,52,17,73.31a67.18,67.18,0,0,0,.73,9.77,57.81,57.81,0,0,0-3.84,21c0,11,4,21.41,10.56,30.43A79,79,0,0,1,55.66,13.69Z"/><path class="cls-3" d="M264.36,67.76c0-16-13.43-27-30-27L208.6,40.7c-9,0-16.39,6.34-16.39,15.39v59c0,6.46,6.28,11.74,12.73,11.74h1.19c6.48,0,12.74-5.25,12.74-11.74,0-9.37-1.51-20.37,11.73-20.37,0,0,7.05-.08,7-.18C255.36,94.58,264.36,80.79,264.36,67.76Z"/><path class="cls-3" d="M283.38,40.7A13.33,13.33,0,0,1,296.71,54V98.19a6.32,6.32,0,0,0,6.32,6.32h2.86a11.27,11.27,0,0,1,11.23,11.24h0A12.12,12.12,0,0,1,305,127.87H283.93c-7.67,0-12.88-6.22-12.88-13.88V54C271.05,43.76,278.36,40.7,283.38,40.7Z"/><g id="Element"><path class="cls-4" d="M406.57,105.45,377.83,47.7a14.48,14.48,0,0,0-24.37,0l-28.73,57.75a14.48,14.48,0,0,0,12.18,22.31h0a12.14,12.14,0,0,0,8.58-3.55l20.16-20.16,20.16,20.16a12.13,12.13,0,0,0,8.57,3.55h0A14.48,14.48,0,0,0,406.57,105.45Z"/><path class="cls-5" d="M324.73,105.45a14.48,14.48,0,0,0,12.18,22.31,12.14,12.14,0,0,0,8.58-3.55l20.16-20.16S346.56,83,324.73,105.45Z"/><path class="cls-6" d="M377.83,47.7a14.48,14.48,0,0,0-24.37,0l-28.73,57.75a14.48,14.48,0,0,0,12.18,22.31,12.24,12.24,0,0,0,4.65-.92c.36-.16.72-.32,1.07-.51a13.06,13.06,0,0,0,1.5-1,13.75,13.75,0,0,0,1.36-1.17l20.16-20.16.1-.09a28.93,28.93,0,0,1,3.05-2.7c6.28-4.84,21.22-12.77,37.74,4.14Z"/></g><path class="cls-3" d="M419.17,98.05,396,60.05a12.6,12.6,0,0,1,10.76-19.16h.56a12.6,12.6,0,0,1,11,6.4l10.32,18.28a6.73,6.73,0,0,0,11.72,0l10.42-18.33a12.61,12.61,0,0,1,11-6.37h0a12.61,12.61,0,0,1,10.76,19.18l-23,37.56a12.6,12.6,0,0,0-1.85,6.58V116a12.61,12.61,0,0,1-12.61,12.61h-1.45A12.6,12.6,0,0,1,421,116v-11.4A12.61,12.61,0,0,0,419.17,98.05Z"/><path class="cls-3" d="M324.22,155.05H339.7c8.2,0,11.59,3,11.59,9.92,0,3.94-1.45,7.14-5.19,8.67,5,1.12,7.13,4.37,7.13,9.76,0,8.09-3.41,11.73-12.38,11.73H324.22Zm14.6,17.3c6.43,0,8.94-2.21,8.94-7.24,0-5.44-2.48-7-8.94-7h-11v14.24Zm1.29,19.72c6.94,0,9.51-2.22,9.51-8.78,0-5.41-2.81-7.87-11.4-7.87H327.78v16.65Z"/><path class="cls-3" d="M360.78,195.13V155.05h27.34v3.08H364.34v15.21h20.5v3.06h-20.5V192H389v3.06Z"/><path class="cls-3" d="M407.35,195.13v-37H394.06V155.1h30.19v3.06H410.79v37Z"/><path class="cls-3" d="M436.88,155.05h4.4L457,195.13h-3.77L449,184h-19.3l-4,11.18H422Zm-6.1,25.83h17.06L439,157.72Z"/></g></g></svg>